HIERARCHY
ROOT Hips
{
	OFFSET -3.958830 18.904000 13.208200
	CHANNELS 6 Xposition Yposition Zposition Zrotation Yrotation Xrotation 
	JOINT LHipJoint
	{
		OFFSET 0.000000 0.000000 0.000000
		CHANNELS 3 Zrotation Yrotation Xrotation
		JOINT LeftUpLeg
		{
			OFFSET 1.800000 -1.400000 0.085000
			CHANNELS 3 Zrotation Yrotation Xrotation
			JOINT LeftLeg
			{
				OFFSET 2.215000 -6.000000 0.000000
				CHANNELS 3 Zrotation Yrotation Xrotation
				JOINT LeftFoot
				{
					OFFSET 2.500000 -6.900000 0.000000
					CHANNELS 3 Zrotation Yrotation Xrotation
					JOINT LeftToeBase
					{
						OFFSET 0.200000 -0.500000 1.950000
						CHANNELS 3 Zrotation Yrotation Xrotation
						End Site
						{
							OFFSET 0.000000 0.000000 0.000000
						}
					}
				}
			}
		}
	}
	JOINT RHipJoint
	{
		OFFSET 0.000000 0.000000 0.000000
		CHANNELS 3 Zrotation Yrotation Xrotation
		JOINT RightUpLeg
		{
			OFFSET -1.800000 -1.400000 0.085000
			CHANNELS 3 Zrotation Yrotation Xrotation
			JOINT RightLeg
			{
				OFFSET -2.215000 -6.000000 0.000000
				CHANNELS 3 Zrotation Yrotation Xrotation
				JOINT RightFoot
				{
					OFFSET -2.500000 -6.900000 0.000000
					CHANNELS 3 Zrotation Yrotation Xrotation
					JOINT RightToeBase
					{
						OFFSET -0.200000 -0.500000 1.950000
						CHANNELS 3 Zrotation Yrotation Xrotation
						End Site
						{
							OFFSET 0.000000 0.000000 0.000000
						}
					}
				}
			}
		}
	}
	JOINT LowerBack
	{
		OFFSET 0.000000 0.000000 0.000000
		CHANNELS 3 Zrotation Yrotation Xrotation
		JOINT Spine
		{
			OFFSET -0.087000 1.940000 -0.288900
			CHANNELS 3 Zrotation Yrotation Xrotation
			JOINT Spine1
			{
				OFFSET 0.000000 1.950000 0.060000
				CHANNELS 3 Zrotation Yrotation Xrotation
				JOINT Neck
				{
					OFFSET 0.000000 0.000000 0.000000
					CHANNELS 3 Zrotation Yrotation Xrotation
					JOINT Neck1
					{
						OFFSET 0.000000 1.600000 0.340000
						CHANNELS 3 Zrotation Yrotation Xrotation
						JOINT Head
						{
							OFFSET 0.000000 1.667000 -0.240000
							CHANNELS 3 Zrotation Yrotation Xrotation
							End Site
							{
								OFFSET 0.000000 0.000000 0.000000
							}
						}
					}
				}
				JOINT LeftShoulder
				{
					OFFSET 0.000000 0.000000 0.000000
					CHANNELS 3 Zrotation Yrotation Xrotation
					JOINT LeftArm
					{
						OFFSET 2.700000 1.550000 -0.730000
						CHANNELS 3 Zrotation Yrotation Xrotation
						JOINT LeftForeArm
						{
							OFFSET 5.450000 0.000000 0.000000
							CHANNELS 3 Zrotation Yrotation Xrotation
							JOINT LeftHand
							{
								OFFSET 3.450000 0.000000 0.000000
								CHANNELS 3 Zrotation Yrotation Xrotation
								JOINT LeftHandIndex1
								{
									OFFSET 0.750000 0.000000 0.000000
									CHANNELS 3 Zrotation Yrotation Xrotation
									End Site
									{
										OFFSET 0.000000 0.000000 0.000000
									}
								}
							}
						}
					}
				}
				JOINT RightShoulder
				{
					OFFSET 0.000000 0.000000 0.000000
					CHANNELS 3 Zrotation Yrotation Xrotation
					JOINT RightArm
					{
						OFFSET -2.700000 1.550000 -0.730000
						CHANNELS 3 Zrotation Yrotation Xrotation
						JOINT RightForeArm
						{
							OFFSET -5.450000 0.000000 0.000000
							CHANNELS 3 Zrotation Yrotation Xrotation
							JOINT RightHand
							{
								OFFSET -3.450000 0.000000 0.000000
								CHANNELS 3 Zrotation Yrotation Xrotation
								JOINT RightHandIndex1
								{
									OFFSET -0.750000 0.000000 0.000000
									CHANNELS 3 Zrotation Yrotation Xrotation
									End Site
									{
										OFFSET 0.000000 0.000000 0.000000
									}
								}
							}
						}
					}
				}
			}
		}
	}
}
MOTION
Frames: 13
Frame Time: 0.016667
-0.202140 17.267810 -0.391380 -10.627350 9.748903 -12.482550 -15.112320 12.519943 2.681809 22.903112 3.713866 -21.472363 -5.041285 12.452014 33.956524 -0.459348 8.185851 1.641997 -0.070110 -0.229300 -0.419970 18.339621 -11.447437 2.680494 -12.461134 3.005524 -4.400940 17.002167 -10.069004 22.072602 -0.444099 -6.263432 2.296531 0.161690 1.027160 0.164110 -3.946421 0.975823 -7.633716 4.563715 2.701793 19.742803 -11.704165 9.061016 18.443832 8.138992 -0.770654 -9.610775 -0.009323 1.825656 35.494653 5.888760 -2.975410 -7.552510 -1.999451 -12.207452 6.509711 -16.263413 -10.658449 -0.707695 146.471563 -25.764464 -95.594313 -4.181769 2.949982 0.376780 0.490980 -0.444100 0.199180 -12.506444 17.896264 1.111533 -2.948292 32.839229 -1.864488 -14.291902 29.710897 -2.875793 1.687437 -1.315744 -0.573170 0.715150 0.556910 0.015030 
-0.196820 17.257400 -0.379340 -10.621384 9.906306 -12.470308 -15.112946 12.505801 2.686388 22.871121 3.700427 -21.625083 -4.948072 12.538605 34.363095 -0.433358 8.238923 1.627276 -0.074900 -0.236380 -0.421560 18.341143 -11.444433 2.680063 -12.644755 3.014976 -4.372012 17.181484 -10.165185 22.139436 -0.447486 -6.300763 2.286316 0.152630 1.027290 0.165020 -3.950841 0.991896 -7.638732 4.666831 2.800732 19.392665 -11.544673 9.099166 18.389650 8.073121 -0.621647 -9.701545 0.215293 1.664494 35.833207 5.843590 -3.065790 -7.014210 -1.981192 -12.238097 6.587601 -16.252775 -10.674116 -0.522820 146.500829 -25.889306 -95.600065 -4.182605 2.954039 0.367870 0.493590 -0.446850 0.200560 -12.400603 17.798728 1.209543 -2.902303 32.784970 -1.503635 -13.599288 29.052410 -2.581848 1.701797 -1.311703 -0.567260 0.706020 0.552620 0.018170 
-0.188320 17.241900 -0.362260 -10.555996 10.088784 -12.667877 -15.110538 12.505226 2.662322 22.767265 3.728178 -21.617248 -4.670945 12.588594 34.890901 -0.414862 8.288816 1.617499 -0.077660 -0.239800 -0.414960 18.343552 -11.469763 2.676169 -12.799793 3.000985 -4.138289 17.191462 -10.270875 22.379940 -0.454679 -6.354955 2.273250 0.149250 1.027710 0.156800 -3.962264 1.042732 -7.626528 4.887586 2.972793 19.043064 -11.411578 9.238613 18.479311 8.147127 -0.425269 -9.776908 0.566832 1.489223 36.115849 5.617990 -3.029430 -6.607170 -1.808434 -12.138159 6.606835 -16.379743 -10.975643 -0.175441 146.545455 -26.061224 -95.718940 -4.184478 2.948404 0.361520 0.496150 -0.451450 0.199870 -12.693097 17.549358 1.284440 -2.610874 32.710712 -1.093656 -13.017702 28.735993 -2.374733 1.705884 -1.308851 -0.569570 0.708490 0.547150 0.016300 
-0.178360 17.233220 -0.343470 -10.572998 10.425601 -13.231236 -15.093939 12.522462 2.598317 22.685272 3.792403 -21.221449 -4.190995 12.534847 35.420279 -0.394103 8.298833 1.610307 -0.066760 -0.226410 -0.404450 18.354384 -11.537971 2.677579 -12.890938 2.911200 -3.546512 17.044937 -10.395181 22.727240 -0.483981 -6.430605 2.243966 0.148220 1.006180 0.161520 -4.011810 1.146343 -7.609089 5.346227 3.098990 18.882849 -11.342435 9.371210 18.759562 8.229620 -0.094165 -9.854375 1.187526 1.156037 36.771740 5.617590 -3.075510 -6.636710 -1.712165 -12.219156 6.701721 -16.362402 -11.138471 0.095380 146.730765 -26.410851 -96.590198 -4.170216 2.961158 0.365630 0.483350 -0.435250 0.200110 -12.886844 17.349368 1.352887 -2.209854 32.619551 -0.904085 -12.852539 28.916040 -2.328044 1.710916 -1.313826 -0.555350 0.693340 0.536170 0.015740 
-0.171060 17.231970 -0.324290 -10.156398 10.549541 -14.039411 -15.103327 12.618635 2.495715 22.328303 3.900675 -20.303184 -3.774912 12.466051 35.798639 -0.364898 8.269165 1.618492 -0.053520 -0.197570 -0.405130 18.329010 -11.620004 2.652113 -13.188367 2.762309 -2.729632 16.374790 -10.411697 23.203477 -0.501253 -6.496118 2.226947 0.153090 0.982940 0.164440 -3.966739 1.142166 -7.539250 4.991101 3.494217 18.899819 -10.780118 9.721826 19.330044 8.300649 0.260296 -10.044353 1.867977 0.878080 37.145021 5.552840 -2.983230 -6.599010 -1.457065 -12.317433 6.776728 -16.509478 -11.417775 0.329093 146.990830 -26.550751 -97.505300 -4.153296 2.986920 0.357640 0.476410 -0.422070 0.202910 -13.178829 17.368573 1.605064 -1.724106 32.114246 -1.051304 -13.346677 29.520085 -2.557273 1.705217 -1.336046 -0.532890 0.671280 0.521820 0.020140 
-0.162830 17.226990 -0.300890 -9.847249 10.746899 -14.681958 -15.099756 12.683858 2.407537 22.000345 3.960747 -19.583743 -3.338644 12.369163 36.120281 -0.361563 8.256964 1.630632 -0.064680 -0.204730 -0.423530 18.319985 -11.708816 2.628835 -13.405028 2.625892 -2.050885 15.712666 -10.432614 23.687280 -0.500731 -6.566633 2.212775 0.151220 0.992380 0.156750 -3.966785 1.196907 -7.475701 4.971151 3.734389 18.626452 -10.382552 9.872431 19.710313 8.395716 0.527597 -10.143175 2.473398 0.897931 37.342908 5.533080 -2.816710 -5.985950 -1.245760 -12.147198 6.867849 -16.885419 -11.365143 0.692848 147.416326 -26.523052 -98.300319 -4.158055 3.001097 0.350500 0.485620 -0.437280 0.203460 -13.460725 17.103720 1.708337 -0.887776 32.236449 -0.787147 -13.673790 29.301170 -2.705851 1.700026 -1.340607 -0.539770 0.668820 0.528800 0.020730 
-0.153470 17.221290 -0.270390 -9.645084 10.786706 -15.204539 -15.081744 12.713442 2.328233 21.818856 4.035877 -18.903447 -2.932805 12.333999 36.508631 -0.332665 8.279430 1.643958 -0.058790 -0.226290 -0.388310 18.327742 -11.803518 2.621164 -13.593850 2.536315 -1.485831 15.244921 -10.479371 24.073308 -0.520237 -6.616069 2.202603 0.131700 0.980050 0.164190 -4.008574 1.327612 -7.433521 5.335739 3.991900 17.985213 -10.080261 10.010351 19.997245 8.489092 0.998402 -10.358097 3.446850 0.493101 38.566569 5.156450 -2.742380 -5.249480 -1.164902 -12.241269 7.197225 -17.366921 -10.952029 1.000446 147.782560 -26.461776 -98.734405 -4.149857 3.000513 0.363120 0.479920 -0.426440 0.207340 -13.597371 16.856468 1.800929 0.056983 32.432574 -0.374244 -13.510192 29.522042 -2.663577 1.706725 -1.333930 -0.538520 0.658710 0.510840 0.007810 
-0.138850 17.211790 -0.239530 -9.487591 10.547804 -15.735842 -15.069128 12.749897 2.235071 21.707917 4.179467 -18.070449 -2.453981 12.288776 36.886816 -0.303074 8.290157 1.649431 -0.046650 -0.218600 -0.363900 18.332195 -11.891274 2.614935 -13.803050 2.528565 -1.043374 14.845279 -10.547779 24.627461 -0.540345 -6.692665 2.168877 0.129620 0.962990 0.176120 -4.031199 1.457749 -7.371799 5.771019 4.279428 17.387067 -9.556488 10.135997 20.260180 8.753758 1.406945 -10.403309 4.350156 0.079611 39.121112 4.482870 -2.566440 -4.817140 -1.058321 -11.761675 7.351963 -18.120994 -10.726212 1.705775 148.673133 -26.118906 -99.462689 -4.146744 3.031270 0.355590 0.478600 -0.415600 0.207300 -14.070587 16.126314 1.683091 0.889874 32.825885 0.294256 -12.905523 29.434827 -2.479295 1.717032 -1.343542 -0.523420 0.638580 0.494960 0.004900 
-0.125650 17.197840 -0.212780 -9.335385 10.420689 -16.154597 -15.051145 12.753514 2.165615 21.585388 4.244276 -17.468714 -2.084962 12.290580 37.376541 -0.279250 8.329186 1.652177 -0.034920 -0.203140 -0.355200 18.344710 -11.971550 2.610233 -14.119818 2.527391 -0.707408 14.659041 -10.695781 25.160692 -0.559177 -6.792667 2.147085 0.135930 0.965420 0.176780 -4.075318 1.617617 -7.325056 6.221823 4.463899 16.784741 -9.133325 10.095668 20.327317 8.979952 1.902973 -10.383943 5.473201 -0.286993 39.456007 4.011310 -2.376460 -4.392360 -0.799541 -11.147559 7.374026 -18.452229 -10.333467 2.286307 149.408346 -25.970377 -100.079355 -4.146712 3.049594 0.347080 0.488990 -0.415800 0.219380 -14.623192 15.175184 1.585978 2.169249 33.499848 1.308452 -12.361012 28.706623 -2.313472 1.718522 -1.342084 -0.519700 0.638940 0.478960 0.005990 
-0.114030 17.185510 -0.195500 -9.020677 10.267379 -16.637974 -15.058981 12.805839 2.093400 21.261215 4.295207 -16.850408 -1.679457 12.218104 37.753050 -0.238835 8.316332 1.674156 -0.022150 -0.178690 -0.351390 18.326659 -12.021365 2.601512 -14.606170 2.561644 -0.319706 14.513530 -10.847708 25.720145 -0.577185 -6.898708 2.120645 0.139730 0.959440 0.172560 -4.036835 1.643505 -7.272012 6.228483 4.737372 16.496658 -8.195251 10.116904 20.534592 9.113455 2.340023 -10.538554 6.425957 -0.681682 39.575907 3.669210 -2.289820 -3.760190 -0.370763 -10.792109 7.457320 -18.627996 -9.982917 2.674748 149.962741 -25.775480 -100.398008 -4.132387 3.084647 0.324600 0.492770 -0.416030 0.233270 -15.184647 14.672170 1.655843 2.621575 33.524799 1.681961 -12.237394 28.554773 -2.307141 1.727716 -1.365780 -0.503200 0.627300 0.454840 0.014900 
-0.097810 17.174150 -0.180980 -8.726706 10.201615 -17.158234 -15.056351 12.845462 2.021275 20.869120 4.288551 -16.240479 -1.246381 12.114205 38.206925 -0.243303 8.346844 1.668301 -0.032590 -0.197190 -0.352480 18.317816 -12.063647 2.608634 -15.310964 2.618629 0.163529 14.685590 -11.089620 26.007321 -0.590988 -7.020737 2.073919 0.135470 0.961750 0.176360 -4.030188 1.675230 -7.236049 6.580007 4.931307 16.349504 -7.447503 10.107251 20.780089 9.246103 2.704507 -10.657296 7.217286 -1.120256 39.745774 3.346000 -2.346760 -3.602200 0.152562 -10.444426 7.440304 -18.630617 -9.854407 3.066219 150.285719 -25.615496 -100.332302 -4.138757 3.095079 0.331310 0.498890 -0.421020 0.224410 -15.848192 14.144254 1.773596 2.980739 33.349945 1.856784 -12.166312 28.828774 -2.299421 1.714213 -1.365681 -0.512920 0.626560 0.467600 0.006190 
-0.077920 17.156620 -0.165940 -8.336002 10.002373 -17.132170 -15.052254 12.868862 1.967729 20.213049 4.219834 -16.054570 -0.856247 12.016577 38.631812 -0.264566 8.391333 1.653195 -0.072000 -0.260870 -0.374950 18.312558 -12.100948 2.605064 -16.063759 2.778289 0.060653 14.781641 -11.301224 26.390071 -0.571777 -7.110208 2.028735 0.114930 0.988350 0.187990 -4.026260 1.718779 -7.181108 6.799088 5.327695 15.592144 -6.405195 10.140033 20.626789 9.119098 3.148204 -10.688553 8.106493 -1.651357 40.081996 3.476170 -2.798720 -2.936390 0.900389 -9.867013 7.479163 -19.015312 -10.094375 3.993519 150.805757 -25.333617 -99.873893 -4.172978 3.104030 0.334540 0.518460 -0.446840 0.202800 -16.268816 13.234764 1.691010 3.617844 33.558866 2.373370 -11.916705 29.254020 -2.183898 1.699570 -1.346429 -0.534520 0.625890 0.510760 -0.002610 
-0.057250 17.144890 -0.155540 -8.068759 9.616751 -17.493896 -15.014741 12.881164 1.907406 19.751947 4.218424 -15.448208 -0.521476 11.943625 39.029475 -0.285102 8.430637 1.644138 -0.090980 -0.293350 -0.381050 18.334692 -12.183831 2.619257 -16.621664 2.825274 0.406656 14.668582 -11.389139 26.491681 -0.570932 -7.165125 2.005758 0.108790 0.997790 0.185050 -4.108840 1.854029 -7.162548 7.750474 5.426038 15.455697 -5.973815 10.052264 20.702735 9.131458 3.348363 -10.714243 8.678619 -1.993515 40.523292 3.506890 -3.026760 -3.074000 1.641491 -9.437606 7.481937 -18.540809 -9.429839 4.215443 151.213082 -24.979388 -99.468422 -4.178833 3.100436 0.357120 0.520380 -0.453610 0.189460 -16.933845 12.648727 1.599273 3.729384 33.802263 2.565940 -11.829102 29.483430 -2.144725 1.686130 -1.327016 -0.559250 0.642000 0.535660 -0.015500 
